<?xml version="1.0" standalone="no"?><!DOCTYPE svg PUBLIC "-//W3C//DTD SVG 1.1//EN" "http://www.w3.org/Graphics/SVG/1.1/DTD/svg11.dtd"><svg t="1557883941076" class="icon" style="" viewBox="0 0 1024 1024" version="1.1" xmlns="http://www.w3.org/2000/svg" p-id="1593" xmlns:xlink="http://www.w3.org/1999/xlink" width="200" height="200"><defs><style type="text/css"></style></defs><path d="M403.81358764 41.519137c-141.47453952 33.28812715-267.96942222 149.79657159-332.88127034 301.25754823-29.95931477 71.56947285-33.28812715 234.68129507-6.65762475 311.24398762 16.64406301 46.60337778 24.96609507 51.59659634 83.22031728 51.59659749 53.26100366 0 79.89150493-13.31525063 138.14572716-66.5762543 81.55591111-76.56269255 111.51522589-143.1389457 159.78300871-364.50499015 18.30847033-86.54912967 44.93897159-174.76266667 58.25422224-194.73554318 13.31525063-21.6372827 24.96609507-43.27456542 24.96609507-48.26778396 0-11.65084445-44.93897159-8.32203209-124.83047539 9.98643825zM543.62372095 66.48523209c-31.62372095 38.2813457-26.63050127 171.43385428 11.65084447 247.99654569 16.64406301 36.61693952 111.51522589 146.46775922 209.71519998 243.00332715l178.09147905 174.76266666 26.63050125-63.24744192c61.5830346-156.45419634 13.31525063-374.49142841-113.17963093-499.32190378-108.18641236-108.18641236-264.64060986-159.78300983-312.90839382-103.19319383zM387.16952348 688.97320619c-83.2203173 26.63050127-178.09147905 49.93219014-211.37960618 49.93219015-34.95253333 0-63.24744078 4.99321856-63.2474408 13.31525177 0 31.62372095 104.8576 133.15250745 183.08469761 176.42707286 154.78979014 84.8847235 329.55245681 76.56269255 486.0066543-21.63728271 104.8576-66.5762543 139.81013333-119.83725683 109.8508197-168.10504192-66.5762543-109.85081856-261.31179634-128.15928889-504.31512463-49.93219015z" p-id="1594" fill="#C6281F"></path></svg>